<?xml version="1.0" encoding="utf-8"?>
<!-- Generator: Adobe Illustrator 22.1.0, SVG Export Plug-In . SVG Version: 6.00 Build 0)  -->
<svg version="1.1" id="Warstwa_1" xmlns="http://www.w3.org/2000/svg" xmlns:xlink="http://www.w3.org/1999/xlink" x="0px" y="0px"
	 viewBox="0 0 124 40" style="enable-background:new 0 0 124 40;" xml:space="preserve">
<style type="text/css">
	.st0{fill:#030714;}
	.st1{fill:#135EEB;}
	.st2{fill:#0A60EA;}
	.st3{fill:#15C2FF;}
	.st4{fill:#2C82FF;}
</style>
<title>TIDIOLE</title>
<polygon class="st0" points="54.9,30.3 54.9,12.9 48.8,12.9 48.8,9.9 64.7,9.9 64.7,12.9 58.5,12.9 58.5,30.3 "/>
<path class="st0" d="M74.6,30.3V9.9h7.1c3.7,0,6.5,0.9,8.5,2.7s2.9,4.3,2.9,7.4s-1,5.7-2.9,7.6s-4.8,2.8-8.8,2.8H74.6z M78.3,27.2
	H82c2.4,0,4.2-0.6,5.5-1.8s1.9-3,1.9-5.3s-0.7-4.1-1.9-5.3c-1.3-1.3-3.3-1.9-5.9-1.9h-3.3L78.3,27.2L78.3,27.2z"/>
<path class="st0" d="M113.3,30.5c-2.9,0.1-5.6-1-7.6-3c-4.1-4.2-4.1-10.9,0-15c2-2,4.8-3.1,7.6-3c2.8-0.1,5.6,1,7.6,3
	c4.1,4.2,4.1,10.9,0,15C118.9,29.5,116.1,30.6,113.3,30.5z M113.3,12.4c-1.9,0-3.7,0.8-5,2.2c-1.3,1.5-2.1,3.4-2,5.3
	c0,2,0.7,3.9,2,5.3c2.5,2.8,6.7,3,9.5,0.5c0.2-0.2,0.4-0.3,0.5-0.5c2.7-3,2.7-7.6,0-10.6C117,13.2,115.2,12.4,113.3,12.4z"/>
<path class="st0" d="M66.9,14.1c0-2.1,1.5-3.9,3.6-4.2h0v16.2c0,2.1-1.5,3.9-3.6,4.2h0V14.1z"/>
<path class="st0" d="M96,14.1c0-2.1,1.5-3.9,3.6-4.2h0v16.2c0,2.1-1.5,3.9-3.6,4.2h0V14.1z"/>
<path class="st1" d="M25,0.6c-6.7,0-12.5,4.8-13.6,11.4c0.8-0.1,1.6-0.2,2.4-0.2l0,0c-0.8,0-1.6,0.1-2.4,0.2l0,0
	C4.8,13.2,0,18.9,0,25.6v13.8h13.8c6.6,0,12.3-4.7,13.6-11.2h-2.3c-0.2,0-0.5,0-0.7,0c0.2,0,0.5,0,0.7,0h13.8V14.4
	C38.8,6.7,32.7,0.6,25,0.6z M11.2,14.4c0,0.9,0.1,1.9,0.3,2.8C11.3,16.3,11.2,15.3,11.2,14.4L11.2,14.4z"/>
<path class="st2" d="M13.9,11.8c-0.8,0-1.6,0.1-2.4,0.2c-0.1,0.8-0.2,1.6-0.2,2.4c0,7.6,6.2,13.8,13.8,13.8c0,0,0,0,0,0h2.4
	c0.2-0.9,0.3-1.7,0.2-2.6C27.7,18,21.5,11.8,13.9,11.8C13.9,11.8,13.9,11.8,13.9,11.8z"/>
<path class="st3" d="M25.1,28.2c-7.6,0-13.8-6.2-13.8-13.8c0,0,0,0,0,0c0-0.8,0.1-1.6,0.2-2.4C4.8,13.2,0,18.9,0,25.6v13.8h13.8
	c6.6,0,12.3-4.7,13.6-11.2H25.1z"/>
<path class="st4" d="M25,0.6c-6.7,0-12.5,4.8-13.6,11.4c0.8-0.1,1.6-0.2,2.4-0.2c7.6,0,13.8,6.2,13.8,13.8c0,0.9-0.1,1.8-0.2,2.6
	h11.4V14.4C38.8,6.7,32.7,0.6,25,0.6z"/>
</svg>
